<svg xmlns="http://www.w3.org/2000/svg" viewBox="0 0 1600 900" preserveAspectRatio="xMidYMid slice">
  <defs>
    <radialGradient id="g1" cx="20%" cy="30%" r="60%">
      <stop offset="0%" stop-color="#7c3aed" stop-opacity="0.55"/>
      <stop offset="100%" stop-color="#7c3aed" stop-opacity="0"/>
    </radialGradient>
    <radialGradient id="g2" cx="80%" cy="70%" r="55%">
      <stop offset="0%" stop-color="#f59e0b" stop-opacity="0.35"/>
      <stop offset="100%" stop-color="#f59e0b" stop-opacity="0"/>
    </radialGradient>
    <radialGradient id="g3" cx="55%" cy="50%" r="40%">
      <stop offset="0%" stop-color="#38bdf8" stop-opacity="0.30"/>
      <stop offset="100%" stop-color="#38bdf8" stop-opacity="0"/>
    </radialGradient>
    <linearGradient id="bgGrad" x1="0%" y1="0%" x2="100%" y2="100%">
      <stop offset="0%" stop-color="#1a1f3a"/>
      <stop offset="50%" stop-color="#0f1729"/>
      <stop offset="100%" stop-color="#1e1b4b"/>
    </linearGradient>
    <filter id="glow" x="-50%" y="-50%" width="200%" height="200%">
      <feGaussianBlur stdDeviation="3" result="blur"/>
      <feMerge>
        <feMergeNode in="blur"/>
        <feMergeNode in="SourceGraphic"/>
      </feMerge>
    </filter>
  </defs>

  <rect width="1600" height="900" fill="url(#bgGrad)"/>
  <rect width="1600" height="900" fill="url(#g1)"/>
  <rect width="1600" height="900" fill="url(#g2)"/>
  <rect width="1600" height="900" fill="url(#g3)"/>

  <!-- subtle grid -->
  <g stroke="#94a3b8" stroke-opacity="0.07" stroke-width="1">
    <path d="M0 75 H1600 M0 150 H1600 M0 225 H1600 M0 300 H1600 M0 375 H1600 M0 450 H1600 M0 525 H1600 M0 600 H1600 M0 675 H1600 M0 750 H1600 M0 825 H1600"/>
    <path d="M100 0 V900 M200 0 V900 M300 0 V900 M400 0 V900 M500 0 V900 M600 0 V900 M700 0 V900 M800 0 V900 M900 0 V900 M1000 0 V900 M1100 0 V900 M1200 0 V900 M1300 0 V900 M1400 0 V900 M1500 0 V900"/>
  </g>

  <!-- neural network connecting lines -->
  <g stroke="#a78bfa" stroke-opacity="0.35" stroke-width="1.2" fill="none">
    <path d="M120 180 L320 240 L540 160 L760 220"/>
    <path d="M320 240 L420 420 L640 380 L860 450"/>
    <path d="M540 160 L640 380 L820 280"/>
    <path d="M760 220 L860 450 L1080 380 L1280 460"/>
    <path d="M820 280 L1080 380"/>
    <path d="M120 180 L240 360 L420 420"/>
    <path d="M240 360 L460 580 L680 620"/>
    <path d="M460 580 L680 620 L900 700"/>
    <path d="M900 700 L1140 660 L1340 720"/>
    <path d="M1080 380 L1280 460 L1340 720"/>
    <path d="M1280 460 L1140 660"/>
    <path d="M640 380 L460 580"/>
    <path d="M860 450 L900 700"/>
    <path d="M1400 200 L1280 460"/>
    <path d="M1400 200 L1500 350"/>
    <path d="M1500 350 L1340 720"/>
  </g>

  <!-- accent connecting lines (brighter) -->
  <g stroke="#fbbf24" stroke-opacity="0.5" stroke-width="1.5" fill="none">
    <path d="M320 240 L540 160 L820 280"/>
    <path d="M680 620 L900 700 L1140 660"/>
  </g>

  <!-- nodes -->
  <g filter="url(#glow)">
    <circle cx="120" cy="180" r="4" fill="#c4b5fd"/>
    <circle cx="320" cy="240" r="5" fill="#a78bfa"/>
    <circle cx="540" cy="160" r="4" fill="#c4b5fd"/>
    <circle cx="760" cy="220" r="5" fill="#a78bfa"/>
    <circle cx="240" cy="360" r="3" fill="#c4b5fd"/>
    <circle cx="420" cy="420" r="6" fill="#fbbf24"/>
    <circle cx="640" cy="380" r="4" fill="#a78bfa"/>
    <circle cx="820" cy="280" r="5" fill="#fde68a"/>
    <circle cx="860" cy="450" r="6" fill="#a78bfa"/>
    <circle cx="1080" cy="380" r="4" fill="#c4b5fd"/>
    <circle cx="1280" cy="460" r="7" fill="#fbbf24"/>
    <circle cx="460" cy="580" r="4" fill="#a78bfa"/>
    <circle cx="680" cy="620" r="5" fill="#c4b5fd"/>
    <circle cx="900" cy="700" r="6" fill="#fde68a"/>
    <circle cx="1140" cy="660" r="4" fill="#a78bfa"/>
    <circle cx="1340" cy="720" r="5" fill="#c4b5fd"/>
    <circle cx="1400" cy="200" r="4" fill="#a78bfa"/>
    <circle cx="1500" cy="350" r="3" fill="#c4b5fd"/>
  </g>

  <!-- floating data tags -->
  <g font-family="ui-monospace, SFMono-Regular, Menlo, monospace" font-size="11" fill="#a78bfa" fill-opacity="0.45">
    <text x="155" y="200">node_01</text>
    <text x="440" y="448">ai.process</text>
    <text x="1305" y="488">prompt:write</text>
    <text x="700" y="640">summarize</text>
  </g>
</svg>
